# xmcd
#
# Track frame offsets:
#	150
#	6929
#	25846
#	46426
#	66281
#	85039
#	105697
#	132062
#	153192
#	170016
#	191938
#	212179
#
# Disc length: 3056 seconds
#
# Revision: 0
# Processed by: cddbd v1.5.1PL0 Copyright (c) Steve Scherf et al.
# Submitted via: dBpowerAMP V4.0
#
DISCID=a10bee0c
DTITLE=4Shades - 4Shades
DYEAR=2001
DGENRE=R&B
TTITLE0=Give Me Your Hand (Interlude)
TTITLE1=Eye Candy
TTITLE2=Give Me What I Want
TTITLE3=Crave
TTITLE4=Hope I Die First
TTITLE5=Everything
TTITLE6=Give Me Your Hand
TTITLE7=I Wanna Go Back
TTITLE8=I Choose You
TTITLE9=I Can't Let You Go
TTITLE10=Reasons
TTITLE11=Tell Me
EXTD=4S/4S--MDC
EXTT0=
EXTT1=
EXTT2=
EXTT3=
EXTT4=
EXTT5=
EXTT6=
EXTT7=
EXTT8=
EXTT9=
EXTT10=
EXTT11=
PLAYORDER=
